<?xml version="1.0" encoding="utf-8"?>
<!-- Generator: Adobe Illustrator 16.0.0, SVG Export Plug-In . SVG Version: 6.00 Build 0)  -->
<!DOCTYPE svg PUBLIC "-//W3C//DTD SVG 1.1//EN" "http://www.w3.org/Graphics/SVG/1.1/DTD/svg11.dtd">
<svg version="1.1" id="Layer_1" xmlns="http://www.w3.org/2000/svg" xmlns:xlink="http://www.w3.org/1999/xlink" x="0px" y="0px"
	  viewBox="0 0 81.499 72.419" enable-background="new 0 0 81.499 72.419" xml:space="preserve" preserveAspectRatio="none">
<g>
	<path d="M46.196,29.537l1.404-12.715c0.396-2.041-1.15-4.055-3.45-4.502l-4.292-0.83c0.246-0.09,0.449-0.293,0.504-0.57
		c0.069-0.363-0.134-0.705-0.458-0.848l0.08-0.404c0.353-0.013,0.668-0.254,0.737-0.616c0.056-0.278-0.056-0.541-0.253-0.718
		c6.184,1.511,9.147,3.795,9.766,0.6c0.674-3.488-2.979-7.131-10.054-8.5c-7.072-1.371-11.822,0.645-12.497,4.135
		c-0.621,3.197,2.991,2.18,9.298,3.09C36.732,7.75,36.53,7.951,36.477,8.23c-0.068,0.357,0.129,0.694,0.443,0.84l-0.08,0.412
		c-0.346,0.018-0.655,0.256-0.724,0.615c-0.056,0.277,0.058,0.541,0.252,0.718l-4.3-0.833c-2.305-0.445-4.492,0.847-4.886,2.888
		l-3.445,12.319c-0.395,2.04,1.152,4.057,3.455,4.502l14.125,2.734C43.616,32.871,45.802,31.578,46.196,29.537z"/>
	<rect y="34.595" width="81.499" height="37.824"/>
	<g>
		
			<rect x="28.888" y="38.606" transform="matrix(-0.2227 0.9749 -0.9749 -0.2227 86.3513 27.5854)" fill="#FFFFFF" width="6.581" height="19.221"/>
		
			<rect x="27.276" y="38.821" transform="matrix(-0.2227 0.9749 -0.9749 -0.2227 92.7047 44.6739)" fill="#FFFFFF" width="2.534" height="40.946"/>
		<g>
			<path fill="#FFFFFF" d="M31.98,58.135l0.37-1.11c0.196-0.862-0.484-1.755-1.519-1.991l-2.5-0.57
				c-1.033-0.237-2.035,0.271-2.231,1.132l-0.151,1.161L31.98,58.135z"/>
			<path fill="#FFFFFF" d="M30.808,61.996l-5.532-1.264c0.13,0.911,0.726,1.664,1.573,1.857l1.733,0.396
				C29.432,63.18,30.292,62.762,30.808,61.996z"/>
		</g>
		<g>
			<path fill="#FFFFFF" d="M16.453,50.185c-0.822-0.188-1.341-1.007-1.151-1.831l0.506-2.216c0.189-0.823,1.011-1.337,1.833-1.148
				l0,0c0.823,0.187,1.337,1.007,1.147,1.831l-0.506,2.216C18.095,49.857,17.274,50.372,16.453,50.185L16.453,50.185z"/>
			<circle cx="16.848" cy="48.601" r="0.221"/>
		</g>
	</g>
</g>
</svg>
