<?xml version="1.0" encoding="utf-8"?>
<!-- Generator: Adobe Illustrator 16.0.0, SVG Export Plug-In . SVG Version: 6.00 Build 0)  -->
<!DOCTYPE svg PUBLIC "-//W3C//DTD SVG 1.1//EN" "http://www.w3.org/Graphics/SVG/1.1/DTD/svg11.dtd">
<svg version="1.1" id="Layer_1" xmlns="http://www.w3.org/2000/svg" xmlns:xlink="http://www.w3.org/1999/xlink" x="0px" y="0px"
	 width="49.051px" height="41.891px" viewBox="0 0 49.051 41.891" enable-background="new 0 0 49.051 41.891" xml:space="preserve" preserveAspectRatio="none">
<g>
	<g>
		<rect y="4.425" width="2.852" height="37.466"/>
		<rect x="40.035" y="36.819" width="9.016" height="5.071"/>
		<path d="M40.244,39.479c0,0.526-0.018,1.047-0.039,1.566H40.7c0.021-0.52,0.04-1.04,0.04-1.566
			c0-21.064-17.116-38.204-38.169-38.25v0.495C23.351,1.769,40.244,18.687,40.244,39.479z"/>
		<g>
			<g>
				<rect x="2.446" y="40.493" transform="matrix(1 0.0081 -0.0081 1 0.3314 -0.0219)" width="0.844" height="0.845"/>
			</g>
			<g>
				<path d="M36.256,41.584l-1.648-0.013l0.008-0.845l1.647,0.013L36.256,41.584z M32.959,41.56l-1.648-0.013l0.007-0.845
					l1.648,0.012L32.959,41.56z M29.663,41.535l-1.649-0.013l0.007-0.845l1.649,0.013L29.663,41.535z M26.365,41.511l-1.647-0.013
					l0.007-0.845l1.648,0.012L26.365,41.511z M23.069,41.485l-1.648-0.011l0.006-0.846l1.649,0.012L23.069,41.485z M19.773,41.462
					l-1.649-0.013l0.006-0.845l1.649,0.013L19.773,41.462z M16.476,41.438l-1.648-0.012l0.005-0.846l1.649,0.012L16.476,41.438z
					 M13.179,41.413L11.53,41.4l0.007-0.845l1.649,0.013L13.179,41.413z M9.883,41.389l-1.649-0.012l0.006-0.845l1.648,0.011
					L9.883,41.389z M6.585,41.364l-1.648-0.012l0.006-0.846l1.648,0.013L6.585,41.364z"/>
			</g>
			<g>
				<rect x="37.907" y="40.753" transform="matrix(1 0.0081 -0.0081 1 0.3345 -0.3088)" width="0.845" height="0.846"/>
			</g>
		</g>
	</g>
	<polygon points="2.535,3.286 0.892,1.644 2.535,0 	"/>
</g>
</svg>
