<?xml version="1.0" encoding="utf-8"?>
<!-- Generator: Adobe Illustrator 17.0.0, SVG Export Plug-In . SVG Version: 6.00 Build 0)  -->
<!DOCTYPE svg PUBLIC "-//W3C//DTD SVG 1.1//EN" "http://www.w3.org/Graphics/SVG/1.1/DTD/svg11.dtd">
<svg version="1.1" id="Layer_1" xmlns="http://www.w3.org/2000/svg" xmlns:xlink="http://www.w3.org/1999/xlink" x="0px" y="0px"
	 width="841.89px" height="595.28px" viewBox="0 0 841.89 595.28" enable-background="new 0 0 841.89 595.28" xml:space="preserve">
<g>
	<g>
		<g>
			<path d="M547.678,107.55c1.634,0.107,2.912,0.625,4.128,1.725c1.118,1.011,1.587,2.352,2.269,3.635
				c0.33,0.619,1.273,0.187,1.107-0.467c-0.739-2.9-4.464-6.221-7.585-5.488C547.25,107.037,547.351,107.528,547.678,107.55
				L547.678,107.55z"/>
		</g>
	</g>
	<g>
		<g>
			<path d="M549.464,107.957c0.001,0.538-0.095,1.074-0.059,1.611c0.044,0.638,0.463,1.188,0.852,1.664
				c0.855,1.047,2.372,1.57,3.684,1.367c0.833-0.129,0.54-1.305-0.186-1.372c-1.012-0.094-1.744-0.273-2.51-0.983
				c-0.709-0.658-0.707-1.53-0.947-2.4C550.17,107.381,549.463,107.475,549.464,107.957L549.464,107.957z"/>
		</g>
	</g>
	<g>
		<g>
			<path d="M547.131,103.523c4.57,1.09,6.908,4.263,10.185,7.254c0.836,0.764,2.369-0.264,1.641-1.266
				c-2.819-3.882-6.823-6.72-11.722-6.755C546.798,102.752,546.698,103.419,547.131,103.523L547.131,103.523z"/>
		</g>
	</g>
	<g>
		<g>
			<path d="M546.247,122.574c-0.61,0.621-0.471,1.551,0.211,2.148c0.632,0.554,1.224,0.954,1.432,1.857
				c0.153,0.665,0.568,1.214,1.037,1.69c0.9,0.913,2.193,0.157,3.22,0.666c1.038,0.514,1.652,1.24,2.776,0.446
				c0.591-0.417,0.091-1.259-0.562-0.961c-0.874,0.398-1.321-0.55-2.067-0.747c-0.627-0.165-1.231-0.137-1.874-0.108
				c-1.258,0.057-1.279-1.375-1.68-2.201c-0.469-0.967-1.945-1.342-1.919-2.552C546.829,122.518,546.451,122.367,546.247,122.574
				L546.247,122.574z"/>
		</g>
	</g>
	<g>
		<path d="M560.445,115.707c0,0-0.313,0.729-0.891,1.748c-0.571,1.023-1.403,2.339-2.3,3.609c-0.903,1.266-1.871,2.487-2.65,3.365
			c-0.773,0.883-1.361,1.421-1.361,1.421s0.312-0.73,0.89-1.749c0.571-1.023,1.404-2.338,2.301-3.608
			c0.903-1.266,1.872-2.486,2.651-3.364C559.858,116.245,560.445,115.707,560.445,115.707z"/>
	</g>
	<g>
		<g>
			<path d="M540.179,127.424c1.522,0.589,2.925,1.006,3.788,2.54c0.367,0.653,0.671,1.43,1.302,1.886
				c0.818,0.591,1.564,0.737,2.546,0.837c2.208,0.225,2.238,1.544,3.321,3.04c0.468,0.646,1.361-0.041,0.867-0.669
				c-0.701-0.891-1.076-2.281-2.125-2.881c-1.463-0.836-3.334-0.306-4.394-1.885c-0.6-0.893-0.885-1.956-1.879-2.54
				c-1.045-0.615-2.131-0.901-3.328-1.048C539.836,126.651,539.826,127.288,540.179,127.424L540.179,127.424z"/>
		</g>
	</g>
	<g>
		<g>
			<path d="M540.863,102.457c1.841-2.394-2.266-5.573-4.044-2.721c-1.35,2.165-1.179,4.567-1.751,6.977
				c-0.752,3.167-2.92,4.428-1.156,7.723c0.369,0.689,1.412,0.078,1.046-0.611c-1.516-2.855,1.3-6.401,1.661-9.467
				c0.151-1.286,0.323-2.401,0.891-3.581c0.94-1.956,2.465,0.339,2.854,1.614C540.438,102.637,540.723,102.639,540.863,102.457
				L540.863,102.457z"/>
		</g>
	</g>
	<g>
		<g>
			<path d="M538.05,105.995c-1.896-0.092-2.459,2.41-1.942,3.832c0.233,0.642,1.171,0.394,1.026-0.283
				c-0.212-0.993-0.095-2.336,1.036-2.657C538.676,106.744,538.556,106.02,538.05,105.995L538.05,105.995z"/>
		</g>
	</g>
	<g>
		<g>
			<path d="M538.454,103.151c0.005-0.002,0.01-0.005,0.015-0.007c-0.09,0-0.18,0-0.27,0c-0.042-0.069-0.083-0.139-0.125-0.208
				c0.07-0.07,0.141-0.141,0.211-0.211c-0.004,0.001-0.008,0.002-0.012,0.003c-0.119,0.027-0.221,0.135-0.251,0.251
				c-0.242,0.949-0.169,1.971-0.439,2.922c-0.177,0.62,0.817,0.889,0.961,0.265c0.114-0.495,0.147-1.015,0.188-1.52
				c0.041-0.509,0.136-1.17-0.017-1.667c-0.033-0.109-0.129-0.234-0.251-0.251c0.051,0.007,0.197,0.169,0.113,0.055
				c-0.047-0.063-0.094-0.108-0.173-0.127c-0.089-0.021-0.197-0.003-0.26,0.069c-0.004,0.004-0.007,0.008-0.011,0.012
				C537.932,102.968,538.183,103.278,538.454,103.151L538.454,103.151z"/>
		</g>
	</g>
	<g>
		<g>
			<path d="M533.923,114.025c-0.004,0.215,0.056,0.381,0.213,0.532c0.417,0.403,1.058-0.282,0.622-0.621
				c-0.018-0.014-0.183-0.192-0.124-0.103C534.428,113.519,533.931,113.636,533.923,114.025L533.923,114.025z"/>
		</g>
	</g>
	<g>
		<g>
			<path d="M536.555,112.362c-4.432,3.691-7.324,9.127-6.843,14.951c0.27,3.278,1.642,6.726,2.722,9.809
				c0.992,2.833,3.133,3.408,5.363,5.031c0.686,0.499,1.444-0.57,0.882-1.143c-2.144-2.184-3.753-2.028-5.169-5.951
				c-0.755-2.092-1.426-4.26-2.061-6.393c-1.68-5.64,2.033-11.683,5.639-15.772C537.41,112.526,536.925,112.053,536.555,112.362
				L536.555,112.362z"/>
		</g>
	</g>
	<g>
		<g>
			<path d="M541.187,101.84c4.232-6.95,8.937-14.335,17.729-15.372c6.152-0.725,13.786,0.955,18.15,5.523
				c0.768,0.803,2.028-0.461,1.215-1.215c-5.321-4.937-13.474-6.467-20.501-5.639c-7.988,0.942-14.919,9.151-17.307,16.402
				C540.331,101.97,540.962,102.21,541.187,101.84L541.187,101.84z"/>
		</g>
	</g>
	<g>
		<g>
			<path d="M569.273,124.389c0.076-3.175-4.049-6.177-7.014-6.222c-0.695-0.011-0.809,0.997-0.161,1.189
				c1.372,0.407,2.631,0.617,3.9,1.359c1.424,0.833,2.238,2.215,2.681,3.754C568.774,124.801,569.265,124.73,569.273,124.389
				L569.273,124.389z"/>
		</g>
	</g>
	<g>
		<g>
			<path d="M567.805,121.956c-0.955-0.048-1.704,0.092-2.563-0.437c-0.87-0.535-1.171-1.334-1.466-2.254
				c-0.232-0.723-1.423-0.631-1.372,0.186c0.083,1.317,0.867,2.382,1.904,3.14c1.232,0.9,2.288,0.491,3.609,0.2
				C568.405,122.683,568.267,121.979,567.805,121.956L567.805,121.956z"/>
		</g>
	</g>
	<g>
		<g>
			<path d="M573.448,123.842c-1.04-4.706-4.752-8.21-9.142-10.003c-1.187-0.485-1.671,1.265-0.805,1.91
				c1.614,1.202,3.478,2.033,5.083,3.271c1.789,1.38,3.18,3.083,4.15,5.123C572.933,124.561,573.539,124.255,573.448,123.842
				L573.448,123.842z"/>
		</g>
	</g>
	<g>
		<g>
			<path d="M575.29,130.499c0.221,0.032,0.441,0.023,0.661-0.026c1.512-0.159,2.666,1.348,1.494,2.486
				c-1.087,1.055-2.744,1.426-4.124,1.902c-2.953,1.019-4.713,4.35-8.087,3.351c-0.752-0.222-1.065,0.938-0.322,1.168
				c2.221,0.687,3.725,0.082,5.448-1.384c2.386-2.028,5.459-2.329,7.888-4.234c3.023-2.372-1.082-6.197-3.152-3.73
				C574.94,130.22,575.044,130.479,575.29,130.499L575.29,130.499z"/>
		</g>
	</g>
	<g>
		<g>
			<path d="M571.351,133.625c-0.066,1.173-1.408,1.552-2.403,1.554c-0.583,0.001-0.749,0.962-0.141,1.045
				c1.531,0.209,3.966-0.791,3.436-2.72C572.103,132.994,571.379,133.123,571.351,133.625L571.351,133.625z"/>
		</g>
	</g>
	<g>
		<g>
			<path d="M575.42,132.74c0.046-0.061,0.062-0.158,0.032-0.229c-0.032-0.077-0.227-0.246-0.155-0.174
				c-0.232-0.232-0.701-0.057-0.97,0.001c-0.8,0.175-1.627,0.401-2.37,0.753c-0.575,0.272-0.068,1.167,0.503,0.86
				c0.474-0.255,1.001-0.417,1.506-0.598c0.294-0.105,0.584-0.217,0.881-0.313c0.11-0.036,0.22-0.066,0.324-0.117
				c0.399-0.197-0.081-0.067-0.161-0.143c-0.023-0.087-0.046-0.173-0.069-0.26c-0.001,0.005-0.002,0.01-0.004,0.015
				C574.865,132.844,575.245,132.972,575.42,132.74L575.42,132.74z"/>
		</g>
	</g>
	<g>
		<g>
			<path d="M565.396,138.573c-0.043-0.025-0.086-0.049-0.128-0.074c-0.501-0.439-1.079,0.413-0.533,0.69
				c0.212,0.108,0.337,0.115,0.57,0.08C565.628,139.22,565.677,138.709,565.396,138.573L565.396,138.573z"/>
		</g>
	</g>
	<g>
		<g>
			<path d="M565.707,135.955c-3.44,4.692-8.149,8.833-14.237,8.862c-2.216,0.011-4.481-0.476-6.691-0.649
				c-4.44-0.347-4.103-2.234-6.897-3.795c-0.702-0.392-1.524,0.587-0.882,1.143c1.355,1.171,2.36,3.189,4.208,3.678
				c3.771,0.997,7.955,1.221,11.842,1.047c5.77-0.258,10.779-5.042,13.306-9.907C566.584,135.896,565.99,135.57,565.707,135.955
				L565.707,135.955z"/>
		</g>
	</g>
	<g>
		<g>
			<path d="M576.1,130.201c6.831-4.031,12.649-12.203,12.326-20.31c-0.279-6.988-4.17-14.905-9.928-18.934
				c-0.902-0.631-1.819,0.901-0.867,1.484c5.8,3.559,8.658,10.924,9.331,17.45c0.845,8.193-5.953,14.561-11.334,19.697
				C575.303,129.896,575.72,130.425,576.1,130.201L576.1,130.201z"/>
		</g>
	</g>
	<g>
		<g>
			<path d="M528.591,139.056c-0.746,2.295-1.294,4.674-1.628,7.064c-0.206,1.468-0.675,3.94,0.377,5.23
				c2.91,3.568,8.528-0.846,11.322-2.459c0.498-0.288,0.057-1.033-0.449-0.767c-2.029,1.063-9.255,6.165-10.269,1.822
				c-0.762-3.267,0.55-7.51,1.325-10.703C529.377,138.8,528.731,138.626,528.591,139.056L528.591,139.056z"/>
		</g>
	</g>
	<g>
		<g>
			<path d="M524.485,139.151c-0.776,2.166-1.86,4.059-2.924,6.078c-0.223,0.423,0.36,0.934,0.69,0.533
				c1.472-1.786,2.234-4.246,2.884-6.432C525.26,138.908,524.63,138.747,524.485,139.151L524.485,139.151z"/>
		</g>
	</g>
	<g>
		<g>
			<path d="M529.323,125.796c-0.487,0.148-0.671,0.751-0.938,1.141c-0.807,1.182-1.818,2.254-2.741,3.346
				c-2.126,2.515-4.341,5.046-6.313,7.674c-0.527,0.702,0.622,1.561,1.204,0.929c2.089-2.267,3.939-4.64,5.834-7.058
				c1.242-1.585,2.99-3.371,3.507-5.368c0.064-0.247-0.048-0.441-0.239-0.586C529.546,125.804,529.441,125.76,529.323,125.796
				L529.323,125.796z"/>
		</g>
	</g>
	<g>
		<g>
			<path d="M522.159,133.982c-8.209,2.362-15.628-2.65-22.613-6.392c-7.525-4.032-14.737-7.187-23.431-6.869
				c-6.825,0.249-12.886,3.292-17.583,8.141c-2.724,2.812-4.344,6.496-5.99,9.986c-2.032,4.308-4.899,7.566-7.667,11.357
				c-0.436,0.597,0.508,1.285,1.005,0.775c5.396-5.542,7.924-12.079,12.103-18.442c5.956-9.071,16.98-11.546,27.027-9.52
				c7.769,1.566,14.792,6.556,21.849,9.991c4.551,2.215,10.903,4.754,15.665,1.84C522.978,134.57,522.684,133.831,522.159,133.982
				L522.159,133.982z"/>
		</g>
	</g>
	<g>
		<g>
			<path d="M445.471,149.297c-8.638,6.108-14.215,16.659-20.508,24.943c-0.512,0.675,0.638,1.559,1.173,0.905
				c6.841-8.347,12.279-17.383,19.861-25.165C446.332,149.636,445.885,149.004,445.471,149.297L445.471,149.297z"/>
		</g>
	</g>
	<g>
		<g>
			<path d="M426.082,181.593c0.611,2.181,1.415,4.616,3.072,6.243c0.479,0.471,1.387-0.172,0.959-0.74
				c-1.355-1.799-2.402-3.626-3.258-5.716C426.664,180.916,425.939,181.082,426.082,181.593L426.082,181.593z"/>
		</g>
	</g>
	<g>
		<g>
			<path d="M424.693,173.637c-2.784,1.57-6.26,2.259-9.221,3.484c-2.94,1.217-5.8,2.619-8.64,4.049
				c-6.88,3.465-13.47,7.501-19.734,11.979c-5.879,4.203-11.206,9.127-16.61,13.908c-5.134,4.542-11.389,11.763-18.382,12.89
				c-1.084,0.175-0.819,1.948,0.257,1.899c5.237-0.237,9.031-4.359,12.798-7.563c6.335-5.389,12.442-11.052,18.872-16.328
				c6.834-5.607,14.352-10.274,22.135-14.433c4.315-2.306,8.749-4.389,13.273-6.247c1.986-0.816,4.377-1.209,5.896-2.801
				C425.756,174.035,425.225,173.337,424.693,173.637L424.693,173.637z"/>
		</g>
	</g>
	<g>
		<g>
			<path d="M352.26,220.667c-5.711,0.714-12.619-0.067-18.003,1.989c-2.634,1.006-4.842,2.928-7.48,4.004
				c-2.69,1.096-5.605,1.146-8.236,2.49c-0.31,0.158-0.381,0.571-0.225,0.857c3.13,5.72,11.2,4.422,16.267,2.354
				c0.69-0.282,0.436-1.381-0.317-1.149c-3.381,1.044-6.799,1.787-10.351,1.286c-3.062-0.432-4.701-2.635-1.014-3.548
				c1.876-0.464,3.69-0.799,5.497-1.51c4.409-1.735,7.186-3.69,12.209-3.881c4.06-0.154,8.074-0.638,11.825-2.253
				C352.738,221.172,352.591,220.625,352.26,220.667L352.26,220.667z"/>
		</g>
	</g>
	<g>
		<g>
			<path d="M333.619,232.365c4.143,3.097,9.082,5.028,14.279,4.137c0.713-0.122,0.527-1.243-0.167-1.237
				c-2.589,0.023-4.988-0.007-7.455-0.881c-2.182-0.773-4.101-2.12-6.299-2.867C333.439,231.335,333.229,232.074,333.619,232.365
				L333.619,232.365z"/>
		</g>
	</g>
	<g>
		<g>
			<path d="M331.119,232.906c-3.499,4.08-6.904,8.23-10.463,12.261c-2.897,3.281-6.238,6.438-8.225,10.379
				c-1.184,2.348,0.735,6.393,3.296,3.873c0.483-0.475-0.168-1.374-0.74-0.959c-1.606-0.785-1.799-1.947-0.58-3.488
				c0.786-1.291,1.693-2.494,2.722-3.608c1.875-2.204,3.798-4.374,5.706-6.55c3.192-3.64,6.406-7.271,8.883-11.447
				C331.934,233.002,331.405,232.572,331.119,232.906L331.119,232.906z"/>
		</g>
	</g>
	<g>
		<g>
			<path d="M315.216,259.469c5.378-3.067,9.806-8.8,13.553-13.622c0.464-0.597-0.342-1.45-0.849-0.849
				c-4.144,4.913-8.737,9.302-13.017,14.064C314.709,259.278,314.954,259.619,315.216,259.469L315.216,259.469z"/>
		</g>
	</g>
	<g>
		<g>
			<path d="M326.896,243.276c3.35,5.091,9.782,9.831,16.094,9.407c0.741-0.05,0.756-1.151,0-1.162
				c-6.823-0.1-10.55-5.046-15.513-8.826C327.134,242.433,326.672,242.935,326.896,243.276L326.896,243.276z"/>
		</g>
	</g>
	<g>
		<g>
			<path d="M315.485,258.87c-1.244,1.161-2.328,2.617-1.325,4.329c0.746,1.274,2.595,1.743,3.887,1.105
				c2.6-1.284,4.724-3.778,6.74-5.805c2.833-2.849,5.459-5.908,8.246-8.803c0.473-0.492-0.246-1.205-0.746-0.746
				c-2.661,2.448-5.071,5.16-7.583,7.758c-1.299,1.344-2.669,2.609-4.02,3.899c-0.415,0.415-0.839,0.821-1.272,1.218
				c-0.427,0.326-0.855,0.653-1.282,0.979c-2.57-1.008-3.229-2.147-1.977-3.42C316.44,258.975,315.825,258.553,315.485,258.87
				L315.485,258.87z"/>
		</g>
	</g>
	<g>
		<g>
			<path d="M319.573,262.923c-1.386,3.261,2.247,3.167,4.329,2.195c5.738-2.677,10.1-8.187,14.403-12.665
				c0.424-0.441-0.145-1.254-0.675-0.874c-3.471,2.491-6.174,5.948-9.288,8.854c-1.305,1.217-7.376,6.24-8.145,2.571
				C320.141,262.733,319.689,262.649,319.573,262.923L319.573,262.923z"/>
		</g>
	</g>
	<g>
		<g>
			<path d="M327.304,262.713c-1.925,5.855,8.267,0.585,9.761-0.354c4.84-3.043,9.205-7.111,13.202-11.158
				c4.375-4.431,8.566-9.561,13.419-13.447c0.58-0.464-0.185-1.448-0.793-1.028c-2.554,1.765-4.457,4.099-6.463,6.446
				c-2.544,2.977-5.55,5.632-8.322,8.398c-3.174,3.167-6.744,6.007-10.359,8.653c-0.248,0.182-9.844,6.287-9.544,2.613
				C328.249,262.296,327.458,262.243,327.304,262.713L327.304,262.713z"/>
		</g>
	</g>
	<g>
		<g>
			<path d="M363.487,237.58c4.881-4.148,11.644-4.967,17.401-7.442c8.479-3.645,16.934-7.18,25.521-10.554
				c14.376-5.649,24.563-16.143,34.859-27.133c0.724-0.773-0.389-1.886-1.16-1.16c-5.695,5.362-10.327,11.67-16.619,16.41
				c-6.847,5.158-14.275,9.315-22.33,12.217c-8.099,2.918-15.794,6.786-23.79,9.945c-5.107,2.018-10.809,2.665-14.669,6.93
				C362.214,237.33,362.943,238.042,363.487,237.58L363.487,237.58z"/>
		</g>
	</g>
	<g>
		<g>
			<path d="M440.7,192.14c2.169-1.808,4.808-2.838,6.962-4.659c2.513-2.124,4.653-4.494,6.734-7.036
				c3.996-4.884,6.317-10.98,8.642-16.779c0.329-0.821-1.064-1.405-1.428-0.602c-2.775,6.129-5.167,12.16-9.468,17.428
				c-2.29,2.804-4.829,5.37-7.784,7.474c-1.69,1.204-3.068,1.995-4.202,3.755C439.929,192.072,440.414,192.378,440.7,192.14
				L440.7,192.14z"/>
		</g>
	</g>
	<g>
		<g>
			<path d="M463.859,159.828c-2.406,12.234,4.315,24.175,16.804,26.808c0.986,0.208,1.4-1.239,0.418-1.516
				c-12.307-3.48-16.539-13.122-16.397-25.181C464.69,159.474,463.952,159.356,463.859,159.828L463.859,159.828z"/>
		</g>
	</g>
	<g>
		<g>
			<path d="M470.127,173.095c1.341,0.572,2.5,1.855,2.253,3.394c0.175-0.099,0.349-0.198,0.524-0.298
				c-1.314-0.224-2.094-1.415-2.573-2.565c-0.166-0.399-0.824-0.23-0.659,0.182c0.55,1.37,1.483,2.83,3.006,3.205
				c0.212,0.052,0.479-0.065,0.524-0.298c0.402-2.067-1.065-3.453-2.867-4.112C470.049,172.5,469.847,172.975,470.127,173.095
				L470.127,173.095z"/>
		</g>
	</g>
	<g>
		<g>
			<path d="M443.518,188.974c-2.905,2.842-4.337,6.5-5.679,10.268c-2.196,6.166-3.988,11.417-9.037,15.873
				c-3.632,3.206-7.532,5.793-10.2,9.932c-2.728,4.231-3.402,10.093-4.663,14.881c-0.2,0.758,0.97,1.308,1.303,0.549
				c2.08-4.736,2.416-9.961,4.723-14.634c2.51-5.083,8.16-8.104,12.342-11.634c3.01-2.54,4.586-6.746,5.867-10.339
				c1.778-4.985,3.256-9.805,6.041-14.359C444.483,189.075,443.875,188.624,443.518,188.974L443.518,188.974z"/>
		</g>
	</g>
	<g>
		<g>
			<path d="M417.459,227.89c-8.353,4.243-14.744,9.195-21.441,15.802c-7.959,7.852-15.629,16.165-22.977,24.59
				c-12.25,14.047-22.563,30.997-26.263,49.454c-0.189,0.942,1.202,1.346,1.45,0.4c4.811-18.344,13.748-34.239,26.058-48.609
				c6.457-7.539,13.436-14.721,20.305-21.884c3.351-3.494,6.797-6.907,10.423-10.115c4.026-3.562,8.656-5.689,12.967-8.744
				C418.522,228.4,418.061,227.584,417.459,227.89L417.459,227.89z"/>
		</g>
	</g>
	<g>
		<g>
			<path d="M347.666,316.512c-3.125,7.757-5.332,15.828-8.795,23.458c-3.285,7.238-7.753,12.991-13.635,18.286
				c-0.835,0.751,0.375,1.909,1.215,1.215c12.858-10.602,18.455-26.969,21.78-42.804C348.31,316.29,347.805,316.167,347.666,316.512
				L347.666,316.512z"/>
		</g>
	</g>
	<g>
		<g>
			<path d="M327.223,356.995c-13.438,8.035-24.293,20.847-31.358,34.69c-3.843,7.529-5.841,15.475-7.761,23.654
				c-2.37,10.094-7.294,18.651-15.204,25.396c-0.84,0.716,0.376,1.921,1.208,1.208c5.594-4.786,10.733-11.006,13.42-17.935
				c3.421-8.82,4.429-18.271,8.135-27.031c6.863-16.219,18.795-28.234,32.116-39.262
				C328.188,357.378,327.662,356.733,327.223,356.995L327.223,356.995z"/>
		</g>
	</g>
	<g>
		<g>
			<path d="M272.971,440.473c-2.284,1.065-4.699,1.405-7.191,1.764c-2.546,0.366-5.92,0.247-8.233,1.493
				c-0.599,0.323-0.333,1.307,0.348,1.283c3.2-0.111,6.546-0.83,9.705-1.337c1.445-0.232,6-0.64,6.113-2.777
				C273.734,440.494,273.285,440.326,272.971,440.473L272.971,440.473z"/>
		</g>
	</g>
	<g>
		<g>
			<path d="M274.258,452.966c-2.133,2.276-5.444,2.69-6.729,5.772c-1.138,2.731,1.623,5.617,3.784,6.733
				c5.516,2.848,7.413-2.941,9.101-7.109c0.228-0.563-0.614-0.82-0.919-0.388c-0.92,1.303-1.405,2.862-2,4.329
				c-0.328,0.808-0.657,1.706-1.2,2.403c-0.927,1.191-2.701,0.585-3.814,0.099c-3.298-1.441-5.494-5.336-1.896-7.767
				c1.615-1.091,3.198-1.925,4.332-3.565C275.191,453.079,274.58,452.622,274.258,452.966L274.258,452.966z"/>
		</g>
	</g>
	<g>
		<g>
			<path d="M270.687,450.884c-2.218,0.813-4.234,2.105-6.591,2.498c-0.6,0.1-0.462,1.136,0.144,1.065
				c2.504-0.294,4.529-1.771,6.786-2.76C271.481,451.488,271.152,450.714,270.687,450.884L270.687,450.884z"/>
		</g>
	</g>
	<g>
		<g>
			<path d="M264.369,453.575c-1.756-0.075-2.345,1.686-1.895,3.128c0.433,1.387,2.515,3.353,3.979,2.052
				c0.37-0.329,0.14-0.896-0.274-1.036c-0.438-0.149-0.85-0.047-1.286-0.267c-0.449-0.226-0.763-0.586-1.007-1.017
				c-0.476-0.838-0.351-1.68,0.599-2.005C264.948,454.269,264.868,453.596,264.369,453.575L264.369,453.575z"/>
		</g>
	</g>
	<g>
		<g>
			<path d="M266.461,458.466c0.548-0.326,1.118-0.393,1.724-0.545c0.611-0.153,0.472-1.081-0.147-1.084
				c-0.815-0.003-1.547,0.362-2.151,0.885C265.474,458.08,266.006,458.737,266.461,458.466L266.461,458.466z"/>
		</g>
	</g>
	<g>
		<g>
			<path d="M266.331,448.56c-0.941,0.38-2.011,0.559-3.001,0.777c-0.787,0.174-1.918,0.319-2.509,0.897
				c-0.334,0.327-0.052,0.785,0.345,0.834c0.836,0.102,1.992-0.459,2.775-0.747c0.93-0.341,1.754-0.747,2.608-1.243
				C266.819,448.921,266.635,448.437,266.331,448.56L266.331,448.56z"/>
		</g>
	</g>
	<g>
		<g>
			<path d="M261.087,450.482c-3.733-0.185-2.776,6.22,0.903,5.559c0.827-0.149,0.587-1.383-0.191-1.41
				c-0.942-0.033-1.494-0.526-1.715-1.441c-0.201-0.832,0.033-1.713,1.003-1.789C261.674,451.354,261.683,450.512,261.087,450.482
				L261.087,450.482z"/>
		</g>
	</g>
	<g>
		<g>
			<path d="M262.872,446.29c-1.94,0.543-3.968,0.735-5.915,1.261c-0.814,0.22-0.465,1.493,0.348,1.262
				c1.951-0.556,3.928-0.867,5.806-1.657C263.627,446.94,263.448,446.129,262.872,446.29L262.872,446.29z"/>
		</g>
	</g>
	<g>
		<g>
			<path d="M256.808,448.128c-2.26,1.539-0.805,4.881,1.71,5.047c1.07,0.071,1.126-1.426,0.238-1.755
				c-1.003-0.372-2.455-1.428-1.361-2.533C257.772,448.505,257.272,447.811,256.808,448.128L256.808,448.128z"/>
		</g>
	</g>
	<g>
		<g>
			<path d="M257.366,444.025c-0.799-0.148-1.878,0.968-2.345,1.531c-0.788,0.95-0.731,2.291-0.014,3.269
				c0.545,0.742,1.644,0.12,1.24-0.725c-0.408-0.852-0.666-1.518,0.013-2.309c0.4-0.466,1.257-0.856,1.293-1.521
				C257.558,444.165,257.471,444.045,257.366,444.025L257.366,444.025z"/>
		</g>
	</g>
	<g>
		<g>
			<path d="M257.254,445.08c0.664,0.198,1.163,0.423,0.915,1.177c0.14-0.106,0.279-0.212,0.419-0.319
				c-0.378-0.046-0.636-0.341-1.012-0.403c-0.432-0.071-0.65,0.437-0.293,0.696c0.367,0.266,0.734,0.496,1.19,0.56
				c0.248,0.035,0.448-0.058,0.534-0.303c0.164-0.468,0.229-1.05-0.124-1.455c-0.361-0.415-0.917-0.554-1.439-0.64
				C256.998,444.319,256.805,444.947,257.254,445.08L257.254,445.08z"/>
		</g>
	</g>
	<g>
		<g>
			<path d="M258.835,448.259c0.461,0.318,0.815,0.592,0.486,1.146c0.15-0.086,0.299-0.172,0.449-0.258
				c-0.449-0.06-0.536-0.457-0.825-0.755c-0.325-0.334-0.955,0.004-0.8,0.466c0.269,0.801,0.727,1.318,1.625,1.329
				c0.166,0.002,0.378-0.097,0.449-0.258c0.214-0.485,0.312-0.935,0.075-1.43c-0.212-0.444-0.788-0.663-1.211-0.83
				C258.723,447.528,258.553,448.065,258.835,448.259L258.835,448.259z"/>
		</g>
	</g>
	<g>
		<g>
			<path d="M261.813,451.048c0.225,0.208,0.414,0.422,0.557,0.694c0.037,0.071,0.065,0.164,0.072,0.244
				c0.01,0.113-0.037,0.11,0.026,0.034c0.065-0.079,0.13-0.027,0.007-0.022c-0.067,0.003-0.146-0.038-0.205-0.066
				c-0.293-0.137-0.526-0.372-0.818-0.509c-0.447-0.209-1.009,0.235-0.715,0.715c0.441,0.72,1.89,1.501,2.534,0.581
				c0.601-0.857-0.424-1.768-1.103-2.132C261.882,450.435,261.561,450.815,261.813,451.048L261.813,451.048z"/>
		</g>
	</g>
	<g>
		<g>
			<path d="M265.107,454.69c0.292,0.11,0.723,0.406,0.725,0.665c-0.001-0.125,0.085-0.207,0.195-0.25
				c-0.068,0.026-0.033,0.014-0.147-0.01c-0.313-0.067-0.569-0.224-0.894-0.264c-0.513-0.062-0.62,0.592-0.373,0.9
				c0.537,0.671,2.038,0.905,2.338-0.117c0.276-0.942-0.869-1.605-1.613-1.763C264.783,453.734,264.588,454.494,265.107,454.69
				L265.107,454.69z"/>
		</g>
	</g>
	<g>
		<g>
			<path d="M272.676,457.102c-0.489,0.284-0.89,0.67-1.359,0.981c-0.339,0.224-0.344,0.692,0,0.915
				c0.761,0.494,1.564,0.919,2.323,1.418c0.47,0.309,0.899,0.662,1.291,1.064c0.327,0.336,0.487,0.768,0.783,1.122
				c0.238,0.283,0.701,0.045,0.7-0.29c-0.002-0.99-1.014-1.83-1.726-2.389c-0.887-0.696-1.884-1.239-2.836-1.84
				c0.036,0.277,0.071,0.555,0.107,0.832c0.443-0.353,0.794-0.792,1.215-1.169C273.526,457.429,273.073,456.872,272.676,457.102
				L272.676,457.102z"/>
		</g>
	</g>
	<g>
		<g>
			<path d="M273.117,457.773c0.796,0.031,1.473,0.41,2.059,0.926c0.639,0.563,0.661,1.147,0.799,1.917
				c0.065,0.363,0.648,0.441,0.803,0.105c0.42-0.909-0.176-1.929-0.822-2.565c-0.724-0.713-1.832-1.105-2.839-1.066
				C272.676,457.106,272.676,457.756,273.117,457.773L273.117,457.773z"/>
		</g>
	</g>
	<g>
		<g>
			<path d="M346.674,375.419c-3.388,1.788-8.181,2.573-9.994,6.37c-0.414,0.866,0.786,1.596,1.299,0.759
				c2.019-3.293,6.114-4.275,9.169-6.32C347.648,375.894,347.212,375.136,346.674,375.419L346.674,375.419z"/>
		</g>
	</g>
	<g>
		<g>
			<path d="M339.015,379.839c-4.073,4.703-6.352,10.999-10.063,16.082c-5.315,7.281-11.498,13.688-18.02,19.879
				c-5.454,5.178-10.316,10.432-14.319,16.824c-3.708,5.921-5.146,15.161-11.222,19.001c-0.837,0.529-0.102,1.783,0.774,1.324
				c5.411-2.836,6.32-8.54,8.772-13.648c3.883-8.089,9.429-14.873,15.89-21.027c6.166-5.873,12.171-11.722,17.491-18.389
				c2.253-2.823,4.314-5.779,6.232-8.839c2.105-3.357,3.204-7.213,5.223-10.622C340.049,379.96,339.38,379.416,339.015,379.839
				L339.015,379.839z"/>
		</g>
	</g>
	<g>
		<g>
			<path d="M285.886,451.645c-3.344,4.004-4.732,9.064-8.808,12.505c-0.602,0.508,0.166,1.397,0.811,1.051
				c4.712-2.533,6.129-8.653,9.025-12.762C287.341,451.832,286.362,451.076,285.886,451.645L285.886,451.645z"/>
		</g>
	</g>
	<g>
		<g>
			<path d="M345.904,376.722c1.437-0.99,2.724-2.089,3.983-3.3c1.211-1.165,2.577-2.41,3.425-3.872
				c0.427-0.737-0.538-1.424-1.143-0.882c-1.222,1.096-2.197,2.514-3.319,3.717c-1.142,1.225-2.351,2.394-3.52,3.593
				C344.964,376.353,345.45,377.035,345.904,376.722L345.904,376.722z"/>
		</g>
	</g>
	<g>
		<g>
			<path d="M336.135,353.027c-1.844,2.269-1.284,5.517-1.257,8.225c0.007,0.713,1.042,0.695,1.094,0
				c0.189-2.521-0.541-5.408,0.884-7.669C337.13,353.148,336.466,352.618,336.135,353.027L336.135,353.027z"/>
		</g>
	</g>
	<g>
		<g>
			<path d="M334.449,356.282c-2.444,3.876-4.799,7.809-5.539,12.402c-0.126,0.785,0.991,1.134,1.215,0.335
				c1.225-4.367,3.366-8.251,5.047-12.433C335.346,356.155,334.678,355.919,334.449,356.282L334.449,356.282z"/>
		</g>
	</g>
	<g>
		<g>
			<path d="M342.521,339.203c-4.218,5.194-5.497,14.02-1.104,19.506c0.527,0.658,1.607-0.198,1.158-0.893
				c-3.477-5.382-2.804-12.785,0.736-18.003C343.629,339.343,342.881,338.759,342.521,339.203L342.521,339.203z"/>
		</g>
	</g>
	<g>
		<g>
			<path d="M352.476,369.178c2.11-1.229,4.315-2.426,6.122-4.081c1.721-1.576,3.318-3.754,4.524-5.74
				c0.387-0.638-0.499-1.304-1.02-0.787c-1.683,1.671-2.843,3.821-4.473,5.558c-1.669,1.778-4.243,2.539-5.642,4.562
				C351.778,368.994,352.181,369.35,352.476,369.178L352.476,369.178z"/>
		</g>
	</g>
	<g>
		<g>
			<path d="M459.117,238.715c-1.198-0.183-2.646-0.335-3.67,0.462c-0.954,0.742-0.921,2.01-0.652,3.076
				c0.191,0.759,1.339,0.437,1.168-0.322c-0.136-0.602-0.287-1.467,0.295-1.896c0.729-0.538,1.887-0.392,2.722-0.304
				C459.558,239.793,459.693,238.802,459.117,238.715L459.117,238.715z"/>
		</g>
	</g>
	<g>
		<g>
			<g>
				<path d="M554.412,145.82c-0.017-0.02-0.034-0.039-0.051-0.059c-0.16-0.182-0.427-0.179-0.627-0.081
					c-1.825,0.899-3.22,3.024-4.478,4.552c-1.963,2.384-3.897,4.71-5.675,7.248c-0.5,0.713,0.637,1.586,1.204,0.929
					c2.226-2.579,4.307-5.389,6.373-8.109C551.506,149.841,554.909,146.384,554.412,145.82L554.412,145.82z"/>
			</g>
		</g>
		<g>
			<g>
				<path d="M547.112,154.667c-1.829,5.276,2.044,10.763,5.059,14.772c4.533,6.027,10.075,11.273,13.829,17.876
					c4.973,8.749,4.585,19.218-0.931,27.517c-2.694,4.053-7.001,6.817-10.637,9.932c-2.735,2.343-4.754,5.24-6.725,8.226
					c-0.4,0.606,0.523,1.319,1.005,0.775c2.735-3.086,4.937-6.252,8.161-8.9c2.999-2.463,6.451-4.592,8.815-7.738
					c4.306-5.732,6.384-12.565,5.198-19.737c-1.364-8.253-5.537-14.253-10.747-20.567c-5.339-6.469-12.689-12.957-12.095-22.03
					C548.079,154.233,547.279,154.187,547.112,154.667L547.112,154.667z"/>
			</g>
		</g>
		<g>
			<g>
				<path d="M548.663,232.655c-5.958,9.031-13.571,16.21-20.235,24.635c-0.585,0.74,0.423,1.8,1.057,1.057
					c6.734-7.897,15.812-15.537,19.929-25.253C549.627,232.589,548.979,232.176,548.663,232.655L548.663,232.655z"/>
			</g>
		</g>
		<g>
			<g>
				<path d="M522.168,258.06c-2.199-0.387-4.223-0.977-6.245-1.923c-0.706-0.33-1.289,0.626-0.616,1.054
					c1.969,1.254,4.477,1.522,6.755,1.655C522.509,258.872,522.614,258.138,522.168,258.06L522.168,258.06z"/>
			</g>
		</g>
		<g>
			<g>
				<path d="M529.143,258.071c-1.188,1.761-1.112,4.133-1.438,6.167c-0.694,4.322-1.745,8.579-2.848,12.812
					c-2.224,8.537-5.24,16.843-9.048,24.799c-3.593,7.507-8.024,14.588-11.908,21.943c-2.53,4.792-6.41,10.034-5.436,15.716
					c0.185,1.079,1.959,0.822,1.899-0.257c-0.365-6.605,4.756-13.513,7.827-19.135c3.712-6.797,7.633-13.449,10.797-20.53
					c2.935-6.571,5.197-13.439,7.13-20.362c0.994-3.561,1.811-7.163,2.527-10.789c0.635-3.22,0.516-6.847,1.472-9.954
					C530.301,257.878,529.468,257.589,529.143,258.071L529.143,258.071z"/>
			</g>
		</g>
		<g>
			<g>
				<path d="M498.963,339.29c-0.612,3.265-0.517,6.47-0.016,9.759c0.522,3.432,1.286,6.545,0.495,10.018
					c-0.477,2.092-1.188,4.075-1.531,6.205c-0.237,1.469-0.116,3.04-0.109,4.522c0.022,4.401-3.252,0.88-4.011-1.164
					c-1.104-2.975-0.887-6.418-0.624-9.523c0.057-0.667-1.055-0.819-1.17-0.158c-0.95,5.448-0.558,13.664,5.778,15.523
					c0.325,0.095,0.685-0.112,0.77-0.437c0.501-1.905,0.564-3.733,0.563-5.706c-0.002-3.759,1.224-6.862,2.285-10.384
					c0.573-1.9,0.307-3.721-0.03-5.622c-0.764-4.302-1.33-8.589-1.73-12.941C499.602,339.023,499.039,338.885,498.963,339.29
					L498.963,339.29z"/>
			</g>
		</g>
		<g>
			<g>
				<path d="M492.919,359.468c-1.135-1.929-2.74-3.512-4.015-5.346c-1.539-2.215-2.029-4.722-2.58-7.306
					c-0.149-0.698-1.263-0.539-1.237,0.167c0.186,5.199,3.22,9.749,7.104,13.047C492.579,360.36,493.199,359.944,492.919,359.468
					L492.919,359.468z"/>
			</g>
		</g>
		<g>
			<g>
				<path d="M491.593,362.099c-4.095,3.794-7.299,8.439-10.602,12.912c-1.708,2.314-3.401,4.663-5.203,6.905
					c-0.728,0.905-1.805,2.22-2.914,2.674c-0.478,0.196-2.968,0.873-2.266-0.681c0.321-0.71-0.611-1.281-1.054-0.616
					c-2.03,3.049,2.557,3.911,4.523,2.35c3.331-2.645,5.634-6.531,8.132-9.921c3.269-4.435,6.668-8.763,9.982-13.163
					C492.462,362.202,491.896,361.818,491.593,362.099L491.593,362.099z"/>
			</g>
		</g>
		<g>
			<g>
				<path d="M470.097,383.991c3.728-5.219,7.032-10.635,10.969-15.731c0.416-0.539-0.51-1.251-0.943-0.728
					c-3.958,4.781-8.585,10.28-10.498,16.26C469.529,384.089,469.936,384.217,470.097,383.991L470.097,383.991z"/>
			</g>
		</g>
		<g>
			<g>
				<path d="M483.385,368.209c-4.747-4.098-10.383-6.596-11.93-13.289c-0.145-0.629-1.229-0.5-1.141,0.154
					c0.844,6.283,6.936,11.699,12.658,13.844C483.368,369.067,483.7,368.481,483.385,368.209L483.385,368.209z"/>
			</g>
		</g>
		<g>
			<g>
				<path d="M469.497,382.861c-1.197,1.796-2.269,0.996-3.218-2.4c0.323-0.583,0.666-1.154,1.028-1.713
					c0.91-1.459,1.779-2.939,2.705-4.388c2.047-3.2,4.322-6.247,6.258-9.519c0.349-0.591-0.537-1.094-0.911-0.532
					c-2.369,3.564-4.906,7.01-7.263,10.582c-1.252,1.898-3.53,4.697-3.773,7.06c-0.448,4.345,3.888,4.608,5.841,1.426
					C470.417,382.964,469.829,382.508,469.497,382.861L469.497,382.861z"/>
			</g>
		</g>
		<g>
			<g>
				<path d="M465.091,379.669c-3.382,0.031-0.517-6.021,0.245-7.519c2.095-4.123,5.293-7.602,7.165-11.842
					c0.286-0.647-0.558-1.172-0.961-0.562c-3.374,5.095-7.679,10.354-9.206,16.373c-0.537,2.118-0.17,6.336,2.93,4.186
					C465.531,380.121,465.451,379.666,465.091,379.669L465.091,379.669z"/>
			</g>
		</g>
		<g>
			<g>
				<path d="M463.542,371.816c-3.278,1.001-0.249-7.884-0.077-8.366c1.478-4.133,3.716-8.207,5.93-11.989
					c2.037-3.481,4.302-6.886,6.512-10.259c1.967-3.003,4.39-5.522,5.771-8.882c0.283-0.688-0.869-1.163-1.196-0.504
					c-2.516,5.074-6.244,9.703-9.291,14.486c-3.117,4.894-6.234,9.83-8.429,15.23c-0.507,1.247-4.777,14.609,1.134,11.122
					C464.34,372.393,464.047,371.662,463.542,371.816L463.542,371.816z"/>
			</g>
		</g>
		<g>
			<g>
				<path d="M481.656,332.531c3.472-4.892,2.888-11.178,3.798-16.847c1.309-8.15,3.388-16.151,4.466-24.349
					c1.058-8.047,3.449-15.363,6.527-22.846c3.231-7.854,8.82-14.099,13.142-21.306c0.551-0.919-0.825-1.688-1.417-0.828
					c-4.132,6.003-8.643,11.842-11.95,18.357c-3.326,6.552-5.648,14.121-7.072,21.303c-1.556,7.846-2.562,15.81-4.159,23.669
					c-1.453,7.147-0.904,15.793-4.298,22.285C480.358,332.614,481.245,333.111,481.656,332.531L481.656,332.531z"/>
			</g>
		</g>
		<g>
			<g>
				<path d="M509.152,247.248c1.104-1.109,1.737-2.138,2.294-3.644c1.248-3.37,3.043-6.283,5.135-9.185
					c4.273-5.928,10.063-9.833,15.841-14.139c0.79-0.588,0.059-1.924-0.789-1.349c-5.17,3.509-10.322,7.077-14.401,11.863
					c-1.805,2.118-3.395,4.434-4.814,6.823c-1.729,2.911-2.263,6.23-3.812,9.21C508.428,247.172,508.866,247.535,509.152,247.248
					L509.152,247.248z"/>
			</g>
		</g>
		<g>
			<g>
				<path d="M534.931,216.516c-11.757,2.711-22.068,0.602-28.096-10.68c-0.486-0.909-1.767-0.112-1.358,0.794
					c5.274,11.647,18.329,15.598,29.777,10.653C535.708,217.087,535.374,216.414,534.931,216.516L534.931,216.516z"/>
			</g>
		</g>
		<g>
			<g>
				<path d="M521.368,213.685c-1.002-1.565-2.64-2.741-4.538-1.947c-0.263,0.11-0.388,0.356-0.255,0.626
					c0.676,1.368,2.269,1.983,3.691,2.224c0.43,0.073,0.617-0.58,0.182-0.659c-1.185-0.216-2.599-0.677-3.094-1.893
					c-0.099,0.175-0.198,0.349-0.298,0.524c1.472-0.57,2.962,0.164,3.848,1.396C521.103,214.232,521.558,213.981,521.368,213.685
					L521.368,213.685z"/>
			</g>
		</g>
		<g>
			<g>
				<path d="M510.418,242.834c-6.153,5.887-15.928,8.655-20.807,15.779c-3.482,5.083-4.763,11.119-9.337,15.52
					c-3.745,3.603-9.194,4.742-13.324,7.784c-0.73,0.538-0.114,1.656,0.72,1.231c4.201-2.14,8.649-4.05,12.464-6.843
					c4.164-3.048,6.142-8.212,8.408-12.642c5.048-9.87,17.003-11.291,22.575-20.29C511.388,242.934,510.777,242.49,510.418,242.834
					L510.418,242.834z"/>
			</g>
		</g>
		<g>
			<g>
				<path d="M477.619,276.678c-1.704,3.439-2.03,7.267-3.237,10.874c-0.256,0.767,0.951,1.093,1.205,0.332
					c1.17-3.497,1.459-7.242,3.111-10.575C479.055,276.59,477.977,275.956,477.619,276.678L477.619,276.678z"/>
			</g>
		</g>
		<g>
			<g>
				<path d="M410.769,297.128c0.934-1.294,1.846-2.602,2.734-3.927c0.45-0.672-0.633-1.297-1.079-0.631
					c-0.888,1.326-1.8,2.634-2.734,3.927C409.217,297.152,410.302,297.775,410.769,297.128L410.769,297.128z"/>
			</g>
		</g>
		<g>
			<g>
				<path d="M410.556,274.196c-0.061,5.732-2.793,19.232,5.072,21.251c0.781,0.201,1.113-1.005,0.332-1.205
					c-6.849-1.758-4.209-14.904-4.154-20.046C411.815,273.389,410.565,273.39,410.556,274.196L410.556,274.196z"/>
			</g>
		</g>
		<g>
			<g>
				<path d="M458.225,239.145c0.268,0.81,0.553,1.717,0.325,2.569c-0.211,0.785-1.215,0.822-1.869,0.82
					c-0.783-0.003-0.779,1.188,0,1.211c1.081,0.031,2.196-0.203,2.787-1.193c0.653-1.094,0.167-2.603-0.245-3.682
					C458.989,238.258,458.012,238.502,458.225,239.145L458.225,239.145z"/>
			</g>
		</g>
	</g>
	<g>
		<g>
			<path d="M492.528,134.253c6.722,8.577,15.548,15.442,23.949,22.285c0.544,0.443,1.323-0.336,0.773-0.773
				c-8.602-6.85-16.768-13.909-24.433-21.801C492.629,133.768,492.37,134.051,492.528,134.253L492.528,134.253z"/>
		</g>
	</g>
	<g>
		<g>
			<path d="M518.706,158.761c-0.08,4.775,4.128,7.592,8.681,6.246c0.539-0.159,0.457-1.049-0.136-1.007
				c-1.88,0.134-3.587,0.357-5.331-0.548c-1.735-0.9-2.433-2.857-2.54-4.691C519.355,158.33,518.713,158.324,518.706,158.761
				L518.706,158.761z"/>
		</g>
	</g>
	<g>
		<g>
			<path d="M531.772,168.427c6.711,6.584,14.816,11.671,22.965,16.279c0.56,0.317,1.054-0.531,0.503-0.86
				c-8.066-4.82-15.948-9.659-23.164-15.723C531.867,167.948,531.571,168.23,531.772,168.427L531.772,168.427z"/>
		</g>
	</g>
	<g>
		<g>
			<path d="M457.014,150.443c-2.004,0.176-3.989,0.415-5.713,1.537c-0.404,0.263-0.046,0.889,0.38,0.649
				c1.688-0.949,3.433-1.306,5.333-1.552C457.41,151.027,457.428,150.407,457.014,150.443L457.014,150.443z"/>
		</g>
	</g>
	<g>
		<g>
			<path d="M542.831,218.102c-0.662,0.839-0.892,2.046-0.856,3.096c0.018,0.534,0.878,0.504,0.811,0
				c-0.114-0.857-0.048-2.043,0.452-2.783C543.401,218.174,543.014,217.871,542.831,218.102L542.831,218.102z"/>
		</g>
	</g>
	<g>
		<g>
			<path d="M511.284,173.68c-2.904,7.345-9.599,13.04-13.719,19.701c-0.472,0.762,0.732,1.461,1.197,0.7
				c4.119-6.736,10.906-12.547,13.266-20.196C512.178,173.4,511.463,173.229,511.284,173.68L511.284,173.68z"/>
		</g>
	</g>
	<g>
		<g>
			<path d="M544.391,133.555c-0.196-0.137-0.361-0.212-0.597-0.243c-0.178-0.023-0.177,0.231-0.039,0.288
				c0.163,0.067,0.276,0.139,0.406,0.255C544.365,134.038,544.617,133.714,544.391,133.555L544.391,133.555z"/>
		</g>
	</g>
	<g>
		<g>
			<path d="M543.209,132.968c-0.141-0.167-0.28-0.33-0.428-0.49c-0.337-0.365-0.864,0.256-0.427,0.553
				c0.638,0.434,1.264,0.894,1.87,1.372c0.472,0.373,0.948,0.923,1.55,1.058c0.312,0.07,0.52-0.233,0.392-0.509
				c-0.258-0.552-0.912-0.91-1.392-1.261c-0.658-0.482-1.328-0.915-2.064-1.268c-0.028,0.215-0.056,0.429-0.084,0.644
				c0.154-0.025,0.297,0.008,0.43,0.101C543.187,133.234,543.302,133.079,543.209,132.968L543.209,132.968z"/>
		</g>
	</g>
	<g>
		<g>
			<g>
				<path d="M409.209,328.547c1.249-2.43,2.443-4.887,3.609-7.357c0.342-0.725-0.735-1.359-1.079-0.631
					c-1.167,2.47-2.36,4.927-3.609,7.357C407.762,328.632,408.841,329.264,409.209,328.547L409.209,328.547z"/>
			</g>
		</g>
		<g>
			<g>
				<g>
					<path d="M475.896,283.86c-9.612,30.771-21.05,62.005-46.197,83.607c-0.612,0.526,0.276,1.406,0.884,0.884
						c25.297-21.732,36.848-53.201,46.518-84.159C477.342,283.421,476.135,283.094,475.896,283.86L475.896,283.86z"/>
				</g>
			</g>
			<g>
				<g>
					<path d="M430.942,366.705c-12.739,10.043-24.826,22.334-28.647,38.583c-0.253,1.077,1.36,1.527,1.657,0.457
						c2.274-8.178,5.786-14.728,11.122-21.32c4.99-6.165,11.029-11.38,16.282-17.306
						C431.612,366.831,431.234,366.475,430.942,366.705L430.942,366.705z"/>
				</g>
			</g>
			<g>
				<g>
					<path d="M403.283,403.297c-4.092,17.4-9.859,33.315-21.644,47.106c-5.642,6.603-12.94,11.322-18.988,17.491
						c-5.51,5.62-9.018,13.428-10.929,20.964c-0.271,1.069,1.379,1.522,1.648,0.454c2.482-9.854,7.719-17.753,15.356-24.36
						c6.27-5.424,12.52-10.378,17.598-17.025c9.686-12.677,16.603-28.483,17.86-44.508
						C404.225,402.899,403.4,402.798,403.283,403.297L403.283,403.297z"/>
				</g>
			</g>
			<g>
				<g>
					<path d="M352.818,488.717c-1.755,1.036-0.234,5.027,0.165,6.389c0.934,3.185,1.883,6.602,3.24,9.634
						c0.296,0.661,1.266,0.285,1.283-0.348c0.068-2.532-1.426-5.35-2.224-7.7c-0.841-2.478-1.68-4.925-1.723-7.549
						C353.554,488.772,353.145,488.524,352.818,488.717L352.818,488.717z"/>
				</g>
			</g>
			<g>
				<g>
					<path d="M341.037,493.236c-0.904,1.652-1.064,3.426-1.23,5.272c-0.324,3.6-3.39,4.299-6.295,2.95
						c-1.15-0.534-2.227-1.468-2.914-2.53c-0.893-1.38,0.048-2.49,0.888-3.513c1.179-1.435,2.608-2.673,3.51-4.317
						c0.267-0.487-0.401-1.052-0.79-0.609c-1.663,1.893-3.72,3.893-4.566,6.31c-0.848,2.424,1.136,4.146,2.896,5.442
						c1.883,1.387,4.749,1.518,6.698,0.254c2.847-1.846,1.585-6.254,2.571-8.934C341.97,493.108,341.262,492.825,341.037,493.236
						L341.037,493.236z"/>
				</g>
			</g>
			<g>
				<g>
					<path d="M344.38,495.938c0.113,2.404-0.312,4.858,0.511,7.178c0.231,0.651,1.251,0.388,1.045-0.288
						c-0.683-2.247-0.426-4.582-0.678-6.89C345.199,495.388,344.353,495.362,344.38,495.938L344.38,495.938z"/>
				</g>
			</g>
			<g>
				<g>
					<path d="M344.828,502.903c0.135,1.026-0.425,1.478-1.425,1.511c-0.463,0.016-0.907-0.114-1.305-0.344
						c-0.506-0.292-0.608-0.773-0.986-1.163c-0.32-0.33-0.924-0.177-1.036,0.274c-0.458,1.844,2.086,2.777,3.484,2.63
						c1.574-0.165,2.955-1.532,2.078-3.127C345.443,502.328,344.77,502.461,344.828,502.903L344.828,502.903z"/>
				</g>
			</g>
			<g>
				<g>
					<path d="M341.27,503.17c0.199-0.785,0.176-1.593-0.19-2.328c-0.292-0.585-1.135-0.16-1.008,0.425
						c0.132,0.611,0.314,1.14,0.268,1.777C340.3,503.584,341.14,503.68,341.27,503.17L341.27,503.17z"/>
				</g>
			</g>
			<g>
				<g>
					<path d="M348.709,498.775c-0.068,1.001-0.05,1.936,0.056,2.936c0.09,0.84,0.121,2.057,0.573,2.78
						c0.224,0.359,0.772,0.296,0.892-0.117c0.226-0.774-0.137-1.704-0.292-2.475c-0.207-1.034-0.576-2.07-0.663-3.124
						C349.246,498.412,348.734,498.409,348.709,498.775L348.709,498.775z"/>
				</g>
			</g>
			<g>
				<g>
					<path d="M349.028,504.599c0.393,0.979-0.225,1.499-1.109,1.771c-0.932,0.286-1.653-0.12-2.092-0.932
						c-0.39-0.72-1.539-0.226-1.312,0.553c1.029,3.532,7.196,1.549,5.352-1.746C349.618,503.8,348.831,504.108,349.028,504.599
						L349.028,504.599z"/>
				</g>
			</g>
			<g>
				<g>
					<path d="M351.951,500.894c0.133,2.08,0.739,4.032,1.119,6.072c0.154,0.826,1.427,0.478,1.262-0.348
						c-0.395-1.973-1.121-3.87-1.499-5.844C352.738,500.277,351.919,500.391,351.951,500.894L351.951,500.894z"/>
				</g>
			</g>
			<g>
				<g>
					<path d="M352.946,506.896c-0.501,1.489-2.148,0.559-2.9-0.154c-0.734-0.695-1.918,0.19-1.403,1.083
						c0.617,1.071,1.89,1.577,3.085,1.422c1.25-0.163,2.003-0.996,2.167-2.222C353.971,506.458,353.11,506.408,352.946,506.896
						L352.946,506.896z"/>
				</g>
			</g>
			<g>
				<g>
					<path d="M357.003,504.682c-0.58,0.292-0.579,1.408-0.826,1.954c-0.417,0.924-1.189,0.864-2.058,0.91
						c-0.782,0.042-1.011,1.218-0.191,1.41c1.225,0.286,2.511-0.27,3.051-1.413c0.225-0.475,0.337-0.994,0.42-1.509
						c0.072-0.443,0.22-0.933-0.089-1.311C357.236,504.631,357.098,504.635,357.003,504.682L357.003,504.682z"/>
				</g>
			</g>
			<g>
				<g>
					<path d="M356.998,504.884c-0.335-0.46-0.69-0.884-1.248-1.062c-0.52-0.166-1.043,0.21-1.383,0.554
						c-0.13,0.131-0.177,0.366-0.068,0.526c0.285,0.416,0.656,0.667,1.099,0.897c0.311,0.162,0.76-0.189,0.521-0.521
						c-0.244-0.34-0.642-0.467-0.87-0.814c-0.023,0.175-0.045,0.351-0.068,0.526c0.569-0.553,0.998-0.162,1.458,0.327
						C356.712,505.607,357.239,505.215,356.998,504.884L356.998,504.884z"/>
				</g>
			</g>
			<g>
				<g>
					<path d="M353.279,504.803c-0.79-0.711-1.678-1.003-2.45-0.081c-0.158,0.189-0.197,0.407-0.081,0.63
						c0.415,0.805,1.103,0.938,1.933,0.824c0.503-0.069,0.408-0.793,0-0.923c-0.425-0.135-0.76-0.023-1.034-0.426
						c0,0.175,0,0.35,0,0.525c0.346-0.533,0.772-0.303,1.242-0.043C353.202,505.482,353.559,505.055,353.279,504.803
						L353.279,504.803z"/>
				</g>
			</g>
			<g>
				<g>
					<path d="M349.293,503.343c-0.601-0.43-1.87-0.947-2.37-0.066c-0.571,1.007,0.788,1.994,1.666,2.047
						c0.438,0.026,0.716-0.601,0.369-0.892c-0.235-0.197-1.055-0.518-1.063-0.776c0.006,0.195-0.035,0.061,0.194,0.035
						c0.336-0.039,0.668,0.07,0.977,0.188C349.399,504.006,349.544,503.522,349.293,503.343L349.293,503.343z"/>
				</g>
			</g>
			<g>
				<g>
					<path d="M344.956,501.947c-0.47-0.586-1.456-1.236-2.196-0.702c-0.967,0.698,0.035,1.991,0.88,2.214
						c0.416,0.11,0.876-0.38,0.596-0.775c-0.161-0.226-0.346-0.385-0.546-0.575c-0.275-0.26,0.032-0.117-0.243,0.06
						c0.23-0.148,0.744,0.252,0.896,0.392C344.762,502.948,345.3,502.376,344.956,501.947L344.956,501.947z"/>
				</g>
			</g>
			<g>
				<g>
					<path d="M337.992,496.701c-0.157,0.545-0.384,1.059-0.508,1.614c0.259-0.105,0.519-0.211,0.778-0.317
						c-1.469-0.892-3.858-2.918-5.72-2.219c-0.339,0.127-0.44,0.716,0,0.791c0.961,0.164,1.764,0.299,2.65,0.763
						c0.883,0.462,1.683,1.068,2.536,1.579c0.381,0.228,0.746-0.079,0.797-0.457c0.074-0.556,0.232-1.084,0.274-1.646
						C338.833,496.337,338.117,496.268,337.992,496.701L337.992,496.701z"/>
				</g>
			</g>
			<g>
				<g>
					<path d="M338.602,496.418c-0.697-1.514-3.331-3.283-4.813-1.712c-0.284,0.301-0.008,0.888,0.428,0.734
						c0.703-0.249,1.194-0.394,1.939-0.167c0.776,0.236,1.464,0.786,1.856,1.49C338.23,497.154,338.783,496.811,338.602,496.418
						L338.602,496.418z"/>
				</g>
			</g>
			<g>
				<g>
					<path d="M378.093,394.195c-0.455,3.685,0.418,7.701-1.6,11.025c-0.518,0.852,0.73,1.508,1.299,0.759
						c2.544-3.348,1.167-7.935,1.239-11.784C379.042,393.575,378.164,393.613,378.093,394.195L378.093,394.195z"/>
				</g>
			</g>
			<g>
				<g>
					<path d="M377.604,402.655c-1.887,2.913-4.311,5.402-6.397,8.167c-2.39,3.166-4.126,6.997-5.841,10.552
						c-3.732,7.738-6.26,15.877-8.782,24.069c-2.484,8.068-5.872,15.366-10.777,22.246c-3.568,5.005-9.149,8.629-9.292,15.275
						c-0.022,1.007,1.434,0.962,1.533,0c0.685-6.664,7.512-11.741,11.154-17.108c4.168-6.142,6.871-12.904,9.045-19.955
						c2.662-8.633,5.573-17.002,9.535-25.141c1.715-3.524,3.596-7.02,5.84-10.237c1.759-2.521,3.665-4.626,4.866-7.495
						C378.708,402.5,377.887,402.218,377.604,402.655L377.604,402.655z"/>
				</g>
			</g>
			<g>
				<g>
					<path d="M336.622,482.041c-2.442,4.48-7.128,8.379-7.398,13.777c-0.038,0.757,1.14,0.909,1.314,0.178
						c1.222-5.139,5.125-8.58,7.214-13.294C338.086,481.948,337.034,481.285,336.622,482.041L336.622,482.041z"/>
				</g>
			</g>
			<g>
				<g>
					<path d="M379.135,395.654c0.545-1.473,1.015-2.97,1.541-4.45c0.593-1.67,1.453-3.248,1.967-4.94
						c0.246-0.808-0.903-1.249-1.33-0.561c-1.735,2.797-2.692,6.59-3.109,9.825C378.132,396.093,378.963,396.118,379.135,395.654
						L379.135,395.654z"/>
				</g>
			</g>
			<g>
				<g>
					<path d="M402.941,393.326c-1.359,2.285-4.343,2.914-6.495,4.201c-0.611,0.366-0.076,1.251,0.552,0.944
						c2.351-1.148,5.585-2.081,6.735-4.682C403.968,393.26,403.251,392.805,402.941,393.326L402.941,393.326z"/>
				</g>
			</g>
			<g>
				<g>
					<path d="M400.997,396.164c-3.01,3.37-5.532,7.005-8.899,10.06c-0.525,0.477,0.174,1.402,0.763,0.989
						c3.848-2.699,6.348-6.625,8.756-10.57C401.85,396.263,401.299,395.826,400.997,396.164L400.997,396.164z"/>
				</g>
			</g>
			<g>
				<g>
					<path d="M412.4,381.42c-3.097,5.513-9.465,9.366-15.832,8.645c-0.832-0.094-0.998,1.27-0.196,1.448
						c6.762,1.504,14.174-3.586,16.896-9.586C413.532,381.349,412.724,380.844,412.4,381.42L412.4,381.42z"/>
				</g>
			</g>
			<g>
				<g>
					<path d="M382.701,386.458c0.957-1.897,0.792-4.047,1.264-6.087c0.621-2.688,2.359-4.935,3.301-7.493
						c0.261-0.709-0.819-1.115-1.187-0.5c-1.267,2.116-2.377,4.397-3.16,6.739c-0.752,2.249-0.701,4.821-0.882,7.162
						C382.01,386.63,382.545,386.768,382.701,386.458L382.701,386.458z"/>
				</g>
			</g>
			<g>
				<g>
					<path d="M387.665,371.966c7.875-17.168,14.896-34.709,22.627-51.941c0.327-0.729-0.75-1.365-1.079-0.631
						c-7.731,17.232-14.752,34.773-22.627,51.941C386.253,372.063,387.33,372.698,387.665,371.966L387.665,371.966z"/>
				</g>
			</g>
		</g>
	</g>
	<g>
		<g>
			<path d="M420.544,298.258c0.626-0.234,1.5-0.562,2.177-0.444c0.653,0.115,1.337,0.311,1.959,0.54
				c1.777,0.655,2.428-2.594,0.358-2.647c-0.928-0.024-1.738,0.122-2.604,0.442c-0.813,0.3-1.648,0.399-2.448,0.788
				C419.254,297.294,419.776,298.545,420.544,298.258L420.544,298.258z"/>
		</g>
	</g>
	<g>
		<g>
			<path d="M416.453,295.086c7.849,4.236,15.878,1.247,23.551-1.999c0.564-0.238,0.159-1.167-0.414-0.982
				c-7.507,2.428-14.863,5.835-22.609,2.078C416.38,293.893,415.855,294.763,416.453,295.086L416.453,295.086z"/>
		</g>
	</g>
	<g>
		<g>
			<path d="M423.484,298.313c-7.112,8.697-13.371,17.836-17.087,28.524c-0.238,0.685,0.822,0.956,1.074,0.296
				c3.976-10.44,9.755-19.458,16.614-28.219C424.416,298.49,423.834,297.885,423.484,298.313L423.484,298.313z"/>
		</g>
	</g>
	<g>
		<g>
			<path d="M409.138,297.154c-8.356,12.098-17.077,23.938-25.751,35.808c-7.261,9.937-10.757,21.348-21.221,28.835
				c-0.412,0.295-0.047,0.962,0.404,0.691c9.865-5.912,14.813-16.998,20.406-26.546c3.666-6.258,8.482-11.97,12.711-17.863
				c4.842-6.749,9.508-13.618,14.016-20.594C409.934,297.127,409.375,296.811,409.138,297.154L409.138,297.154z"/>
		</g>
	</g>
</g>
</svg>
