<?xml version="1.0" encoding="utf-8"?>
<!-- Generator: Adobe Illustrator 16.0.0, SVG Export Plug-In . SVG Version: 6.00 Build 0)  -->
<!DOCTYPE svg PUBLIC "-//W3C//DTD SVG 1.1//EN" "http://www.w3.org/Graphics/SVG/1.1/DTD/svg11.dtd">
<svg version="1.1" id="Layer_1" xmlns="http://www.w3.org/2000/svg" xmlns:xlink="http://www.w3.org/1999/xlink" x="0px" y="0px"
	 width="125.263px" height="74.709px" viewBox="0 0 125.263 74.709" enable-background="new 0 0 125.263 74.709"
	 xml:space="preserve" preserveAspectRatio="none">
<g id="Shape_23_2_" transform="matrix(-1.883334,0,0,1.883334,851.76735,-69.964356)">
	<g id="g1475">
		<path id="path1477" fill="#010101" d="M452.252,51.111c-0.028-0.13-0.4-0.4-0.614-0.567c-0.215-0.168-1.378-0.866-2.327-1.276
			c-0.949-0.41-2.113-0.587-2.318-0.634c-0.204-0.046-0.307-0.279-0.345-0.372c-0.036-0.093-0.14-0.605-0.194-0.856
			c-0.057-0.251,0-0.615,0.167-1.174c0.168-0.56,0.559-1.238,1.099-1.807c0.54-0.569,1.21-0.941,1.499-1.118
			c0.288-0.177,0.372-0.4,0.335-0.717c-0.037-0.317-0.345-0.438-0.643-0.447c-0.298-0.009-1.759,0.279-2.299,0.298
			c-0.54,0.02-1.518-0.214-1.704-0.27c-0.186-0.057-0.493-0.047-0.493-0.047l-1.647-2.114c0,0,0.335-0.187,0.382-0.214
			c0.047-0.028,0.056-0.261,0.056-0.261s0.159-0.084,0.242-0.121c0.084-0.038,0.148-0.149,0.168-0.252
			c0.019-0.103,0.177-1.724,0.177-1.835c0-0.112-0.02-0.177-0.14-0.177c-0.121,0-0.363,0.205-0.363,0.205s-0.093,0.009-0.232,0.027
			c-0.141,0.02-0.447,0.195-0.55,0.261c-0.103,0.066-0.167,0.233-0.167,0.233s-0.885,0-1.09,0c-0.204,0-0.325,0.074-0.391,0.074
			h-1.396c-0.446,0-0.81,0.335-0.81,0.335s-1.424-0.028-2.095-0.028c-0.67,0-0.949,0.531-0.949,0.531s-3.435,0-5.641,0
			c-2.206,0-5.166-0.167-5.669-0.167c-0.503,0-0.643,0.53-0.643,0.53s-7.372,0-8.377,0c-1.006,0-1.676,0.279-2.039,0.279h-21.056
			c-0.195,0-0.446-0.279-0.726-0.279s-0.391,0-0.391,0s0-0.293-0.084-0.335c-0.083-0.042-1.982-1.006-2.317-1.09
			c-0.336-0.084-0.656,0.111-0.656,0.111s0.014,1.244-0.056,1.313h-1.132c-0.195,0-0.405,0.084-0.433,0.392
			c-0.028,0.308,0.21,0.447,0.21,0.447s-0.476,1.509-0.699,2.431c-0.223,0.922-0.167,1.313,0,2.012
			c0.168,0.699,1.285,3.157,1.396,3.409c0.111,0.251,0.195,0.446,0.392,0.559c0.195,0.111,0.726,0.195,1.981,0.224
			c1.258,0.027,20.303,0.363,21.671,0.419c1.368,0.056,2.122,0.392,3.379,1.37c1.256,0.978,2.038,2.57,2.29,3.743
			c0.251,1.174-0.168,2.515-0.224,3.019c-0.056,0.502-0.196,1.089,0,1.313c0.195,0.224,0.643,0.167,1.173,0.195
			s6.842,0.308,7.093,0.308c0.252,0,0.363,0.028,0.754-0.112c0.391-0.139,1.09-0.195,1.676,0.141
			c0.586,0.335,1.256,1.285,1.424,2.263c0.168,0.979,1.566,10.465,1.566,10.618c0,0.154-1.058,2.319-1.136,2.564
			c-0.078,0.246,0,0.47,0,0.47s-0.159,0.138-0.159,0.316c0,0.178,0.024,0.567,0.584,0.779c0.558,0.213,2.145,0.246,2.145,0.246
			s-0.034,0.168,0.402,0.19c0.435,0.021,1.038,0.044,3.998,0.128c2.96,0.084,5.026,0.224,5.026,0.224l0.196-0.754l3.295,0.027
			c0,0,1.032-0.922,1.229-1.174c0.195-0.251,0.168-0.895,0.168-0.895s0.084-0.084,0.224-0.251c0.14-0.168,0.069-0.6,0.069-0.908
			c0-0.363,0.14-0.88-0.125-3.031c-0.241-1.957-1.09-3.297-1.982-5.841c-0.895-2.542-1.174-4.255-1.378-5.141
			c-0.205-0.885-0.465-1.714-0.567-3.064c-0.104-1.351,0.195-2.226,0.847-3.026c0.652-0.8,1.313-0.913,1.461-0.979
			c0.149-0.065,0.289-0.214,0.484-0.307c0.195-0.094,0.503-0.066,0.688-0.066c0.187,0,0.308-0.111,0.484-0.111
			c0.176,0,5.521,0.01,5.688,0.01S452.28,51.241,452.252,51.111z M427.385,56.35c-0.209,0.572-0.936,1.117-1.48,1.354
			c-0.544,0.237-1.451,0.293-1.885,0.266c-0.433-0.028-4.342-0.168-5.055-0.224c-0.712-0.056-0.865-0.727-0.894-1.104
			c-0.027-0.377-0.027-1.83-0.014-2.432c0.014-0.601,0.056-0.754,0.167-1.033c0.112-0.28,0.405-0.503,0.643-0.699
			c0.237-0.195,0.405-0.559,0.447-0.656s0.111-0.167,0.182-0.195c0.069-0.028,0.195-0.279,0.279-0.335
			c0.084-0.056,0.335-0.084,0.628-0.084c0.293,0,2.82,0.014,2.946,0.014c0.125,0,0.209-0.112,0.209-0.112s0.308,0,0.377,0.057
			c0.069,0.056,0.084,0.224,0.069,0.335c-0.014,0.112-0.014,0.378-0.153,1.3c-0.155,1.029-0.879,1.886-1.34,2.361
			c-0.46,0.475-1.117,0.908-1.201,1.005c-0.084,0.099-0.07,0.279,0.21,0.308c0.279,0.028,0.949,0.057,1.801-0.349
			c0.854-0.407,1.183-1.125,1.647-1.859c0.363-0.572,0.545-1.731,0.601-1.913s0.14-0.237,0.182-0.308
			c0.042-0.071,0.027-0.321,0.027-0.321s0.07-0.027,0.308,0.084c0.238,0.111,1.229,0.698,1.467,1.955
			C427.845,55.316,427.594,55.777,427.385,56.35z"/>
	</g>
</g>
</svg>
